<?xml version="1.0" standalone="no"?>
<!DOCTYPE svg PUBLIC "-//W3C//DTD SVG 1.1//EN" "http://www.w3.org/Graphics/SVG/1.1/DTD/svg11.dtd" >
<svg xmlns="http://www.w3.org/2000/svg" xmlns:xlink="http://www.w3.org/1999/xlink" version="1.1" viewBox="-10 0 1262 2048">
   <path fill="currentColor"
d="M410.982 1667.17c-53.8604 -0.015625 -101.373 -27.5986 -140.694 -69.2812c-43.9531 -56.2266 -66.7812 -241.298 -92.7529 -310.251c-4.30566 -65.5996 -11.5332 -45.6855 -28.6201 -179.192c-25.3047 -197.714 -48.3418 -287.463 -45.5547 -408.55
c17.1133 -52.002 63.1934 -65.415 120.17 -76.0332c145.255 -25.96 198.575 -47.2803 256.051 -87.4004l-21.9707 94.4805c-75.9492 56.2197 -142.775 72.9785 -218.551 114.092c-14.6299 8.25977 -14.6299 8.25977 -14.6299 20.0596
c1.70117 42.748 6.22949 88.0479 12.3975 134.46c8.75977 65.916 15.2246 96.5264 21.9854 163.737c7.42188 73.7871 40.5918 199.998 48.1875 264.707c20.0898 171.154 39.8662 200.427 81.5098 212.4c70.8877 20.3818 383.28 -0.161133 427.17 -35.5605
c62.7002 -120.36 87.2256 -169.434 136.32 -261.84c34.418 -64.7822 76.9346 -202.981 89.0996 -267.726c12.0107 -63.9209 14.6348 -153.115 -12.54 -198.24c-39.6709 -54.1211 -269.546 40.3457 -291.189 104.87c-0.298828 23.3125 13.8535 70.2334 22.9844 83.4951
l-64.1045 116.075c-25.3389 -29.4033 -72.9033 -91.2266 -79.9736 -135.506c-5.27734 -33.0557 -0.993164 -63.2646 13.4531 -85.5889c40.5439 -62.6533 160.129 -144.759 229.54 -182.466c36.9434 -20.5898 149.898 -20.3643 187.219 -15.1201
c23.1064 3.24805 50.0322 8.64258 64.1064 31.1426c48.25 77.1377 33.4648 248.553 12.0146 345.058c-17.498 78.7256 -55.6709 170.013 -74.6094 216.006c-42 102 -69.2979 136.561 -132 264c-24.0127 48.8047 -49.1328 76.4434 -102 102
c-39.7822 19.2314 -360.596 46.1846 -403.018 46.1719z" />
</svg>
