<?xml version="1.0" encoding="UTF-8" standalone="no"?>
<svg
   xmlns:dc="http://purl.org/dc/elements/1.1/"
   xmlns:cc="http://creativecommons.org/ns#"
   xmlns:rdf="http://www.w3.org/1999/02/22-rdf-syntax-ns#"
   xmlns:svg="http://www.w3.org/2000/svg"
   xmlns="http://www.w3.org/2000/svg"
   xmlns:sodipodi="http://sodipodi.sourceforge.net/DTD/sodipodi-0.dtd"
   xmlns:inkscape="http://www.inkscape.org/namespaces/inkscape"
   inkscape:version="1.0rc1 (09960d6f05, 2020-04-09)"
   sodipodi:docname="uni0809_Official-Aramaic.svg"
   id="svg4"
   viewBox="-10 0 1104 2048"
   version="1.1">
  <metadata
     id="metadata10">
    <rdf:RDF>
      <cc:Work
         rdf:about="">
        <dc:format>image/svg+xml</dc:format>
        <dc:type
           rdf:resource="http://purl.org/dc/dcmitype/StillImage" />
      </cc:Work>
    </rdf:RDF>
  </metadata>
  <defs
     id="defs8" />
  <sodipodi:namedview
     inkscape:current-layer="svg4"
     inkscape:window-maximized="1"
     inkscape:window-y="-9"
     inkscape:window-x="-9"
     inkscape:cy="784.65455"
     inkscape:cx="1038.2679"
     inkscape:zoom="0.38669902"
     showgrid="false"
     id="namedview6"
     inkscape:window-height="707"
     inkscape:window-width="1024"
     inkscape:pageshadow="2"
     inkscape:pageopacity="0"
     guidetolerance="10"
     gridtolerance="10"
     objecttolerance="10"
     borderopacity="1"
     bordercolor="#666666"
     pagecolor="#ffffff" />
  <path
     sodipodi:nodetypes="cccssssssssscscccccsscsssccsscscsccscssssccccscc"
     inkscape:connector-curvature="0"
     id="path32"
     d="M 199.51554,1147.9217 C 92.752881,1042.2657 111.82862,890.49154 113.86498,769.53371 c 8.3987,-76.58503 9.41242,-167.44062 44.68042,-228.77842 28.67361,-47.16983 62.1211,-66.36249 136.64586,-78.40939 24.14548,-3.90311 125.18149,-6.66209 379.43719,-10.36126 87.3164,-1.27037 171.1778,-3.38443 186.3586,-4.69792 52.1838,-4.51508 80.2673,-18.08981 102.092,-49.34831 6.2375,-8.93377 12.4998,-16.24322 13.9161,-16.24322 4.324,0 23.27455,20.74534 32.11355,35.15495 21.362,34.82502 30.2753,64.76947 30.1854,101.40868 -0.072,29.26113 -1.5285,33.12068 -19.5966,51.92011 -22.97195,23.9018 -86.79541,42.84607 -129.20931,48.52095 l -11.3419,1.51752 1.4814,33.26602 c 3.49926,78.57862 4.3841,197.53473 1.7483,235.12352 -5.63974,91.17418 -3.00219,140.84246 -7.90464,233.61036 -0.24503,17.7051 -3.05835,15.925 -19.449,16.5056 -23.19896,0.4279 -48.4817,1.5068 -69.73355,2.7807 -19.33255,2.3463 -17.93155,-5.3617 -14.89295,-19.8123 6.1222,-28.7549 13.4893,-97.6237 23.4779,-219.47599 13.6593,-166.63146 17.2271,-255.65238 10.8398,-270.46634 l -3.1782,-7.3712 -29.2685,-0.11249 c -16.0977,-0.0618 -61.0779,-1.4546 -99.9561,-3.09502 -38.8781,-1.64042 -75.26893,-3.24495 -76.12749,-2.77542 -0.85857,0.46951 -3.33337,6.19995 -5.49958,12.73431 -33.77311,57.96523 -51.66306,99.00403 -78.94038,177.36247 -7.9523,23.13946 -9.05417,35.49514 -11.31568,61.67546 -2.86444,33.16027 6.4885,87.11854 14.31363,167.45842 2.51543,25.8256 7.08077,49.442 7.91031,63.6554 0.69507,11.0006 2.11541,20.3157 -0.067,26.7982 -1.79283,5.3252 -6.01689,8.7389 -15.07142,9.6053 -8.14999,0.7799 -35.05744,2.1172 -59.79439,2.9718 l -17.93873,0.6197 c -8.87624,-40.9728 -8.93484,-135.5057 -8.46153,-177.05777 -3.88951,-56.79751 0.40323,-112.49573 11.82893,-164.99462 12.57416,-57.77585 33.78729,-111.67689 62.24085,-158.90403 7.20176,-11.81474 13.09411,-22.78649 13.09411,-24.38166 0,-1.99823 -3.9059,-2.90035 -12.55763,-2.90035 -6.90671,0 -50.99807,-1.09899 -80.10144,-2.44221 -91.50681,-4.22333 -151.85907,5.23271 -173.12739,27.12572 -3.17128,3.26442 -8.49601,11.28007 -11.83273,17.81254 -36.42699,82.27726 -26.51203,165.25932 -22.12931,245.91804 2.65881,53.68817 7.22206,89.42944 13.4735,105.53004 11.12092,29.3247 39.45989,63.8409 41.76368,91.5664 1.17371,15.8793 -4.28187,27.302 -19.16126,40.1193 -13.69684,11.7986 -26.54884,14.4245 -45.29421,9.2544 z"
     style="fill:#000000;stroke-width:2.29271" />
</svg>
