<?xml version="1.0" encoding="UTF-8" standalone="no"?>
<svg
   xmlns:dc="http://purl.org/dc/elements/1.1/"
   xmlns:cc="http://creativecommons.org/ns#"
   xmlns:rdf="http://www.w3.org/1999/02/22-rdf-syntax-ns#"
   xmlns:svg="http://www.w3.org/2000/svg"
   xmlns="http://www.w3.org/2000/svg"
   xmlns:sodipodi="http://sodipodi.sourceforge.net/DTD/sodipodi-0.dtd"
   xmlns:inkscape="http://www.inkscape.org/namespaces/inkscape"
   inkscape:version="1.0rc1 (09960d6f05, 2020-04-09)"
   sodipodi:docname="uni0803_Official-Aramaic.svg"
   id="svg4"
   viewBox="-10 0 1063 2048"
   version="1.1">
  <metadata
     id="metadata10">
    <rdf:RDF>
      <cc:Work
         rdf:about="">
        <dc:format>image/svg+xml</dc:format>
        <dc:type
           rdf:resource="http://purl.org/dc/dcmitype/StillImage" />
      </cc:Work>
    </rdf:RDF>
  </metadata>
  <defs
     id="defs8" />
  <sodipodi:namedview
     inkscape:current-layer="svg4"
     inkscape:window-maximized="0"
     inkscape:window-y="0"
     inkscape:window-x="0"
     inkscape:cy="697.42302"
     inkscape:cx="2031.9397"
     inkscape:zoom="0.13671875"
     showgrid="false"
     id="namedview6"
     inkscape:window-height="544"
     inkscape:window-width="903"
     inkscape:pageshadow="2"
     inkscape:pageopacity="0"
     guidetolerance="10"
     gridtolerance="10"
     objecttolerance="10"
     borderopacity="1"
     bordercolor="#666666"
     pagecolor="#ffffff" />
  <path
     sodipodi:nodetypes="ccscccccccscccsccccccccccccc"
     inkscape:connector-curvature="0"
     id="path2"
     d="m 876.95035,1727.577 -435.07944,10.4285 c -5.5101,-7.476 -2.84552,-16.4344 7.73806,-16.8179 109.93832,-3.9831 165.24243,-4.8186 290.48269,-3.8284 40.52771,-274.7443 24.47759,-559.5791 -51.1643,-790.4548 -163.09305,27.47654 -360.44912,67.66013 -516.15962,13.22074 -42.88546,-16.01385 -68.90941,-31.62813 -70.99475,-75.19167 0,-23.2998 0,-23.2998 27.5244,-71.5635 77.4775,-127.996 170.778,-241.845 268.177,-331.19 22.0205,-19.9727 22.0195,-19.9736 47.9717,-38.2793 25.9541,-18.3066 16.5146,-18.8984 60.5547,-18.8984 17.3008,0 26.7402,0.5918 59.7705,40.5342 36.04,-11.6992 74.8789,-19.6836 112.776,-24.2783 31.8857,-3.86621 63.1055,-5.33301 91.4326,-4.59277 25.3691,0.23242 52.2373,3.89258 76.6436,8.78418 25.332,5.07715 48.0107,11.4814 63.6074,16.7578 l -66.0996,108.164 c -16.3838,-3.47754 -33.3994,-8.19238 -50.8086,-13.3574 -21.7002,-6.43848 -44.0127,-13.5791 -66.4766,-19.9014 -41.9238,-11.7998 -72.374,-2.75098 -112.35,1.02246 62.3887,68.1279 98.4961,143.664 128.504,231.867 131.45856,342.50936 146.02462,620.18826 134.39489,962.46156 -0.16128,5.0626 -0.30996,10.1008 -0.44463,15.1134 z M 176.53048,860.314 C 324.4035,923.89932 531.20652,906.71812 678.86305,859.58998 650.17646,751.65824 611.78637,640.20336 551.44575,554.48944 535.87109,536.97197 488.76468,494.64513 472.01976,497.53101 349.15248,589.5248 235.25273,737.54284 176.53048,860.314 Z"
     fill="currentColor" />
</svg>
