<?xml version="1.0" encoding="UTF-8" standalone="no"?>
<svg
   xmlns:dc="http://purl.org/dc/elements/1.1/"
   xmlns:cc="http://creativecommons.org/ns#"
   xmlns:rdf="http://www.w3.org/1999/02/22-rdf-syntax-ns#"
   xmlns:svg="http://www.w3.org/2000/svg"
   xmlns="http://www.w3.org/2000/svg"
   xmlns:sodipodi="http://sodipodi.sourceforge.net/DTD/sodipodi-0.dtd"
   xmlns:inkscape="http://www.inkscape.org/namespaces/inkscape"
   version="1.1"
   id="svg2"
   xml:space="preserve"
   width="256"
   height="396"
   viewBox="0 0 256 396"
   sodipodi:docname="daleta_017_08092026_121338.svg"
   inkscape:version="1.0rc1 (09960d6f05, 2020-04-09)"
   inkscape:export-filename="D:\Fonts\early-aramaic\samaritan-aramaic-main\documentation\daleta_017_08092026_121338.png"
   inkscape:export-xdpi="299"
   inkscape:export-ydpi="299"><metadata
     id="metadata8"><rdf:RDF><cc:Work
         rdf:about=""><dc:format>image/svg+xml</dc:format><dc:type
           rdf:resource="http://purl.org/dc/dcmitype/StillImage" /><dc:title /></cc:Work></rdf:RDF></metadata><defs
     id="defs6" /><sodipodi:namedview
     inkscape:document-rotation="0"
     pagecolor="#ffffff"
     bordercolor="#666666"
     borderopacity="1"
     objecttolerance="10"
     gridtolerance="10"
     guidetolerance="10"
     inkscape:pageopacity="0"
     inkscape:pageshadow="2"
     inkscape:window-width="1024"
     inkscape:window-height="707"
     id="namedview4"
     showgrid="false"
     inkscape:zoom="1.42"
     inkscape:cx="143.83417"
     inkscape:cy="187.14334"
     inkscape:window-x="-9"
     inkscape:window-y="-9"
     inkscape:window-maximized="1"
     inkscape:current-layer="g18" /><g
     id="g10"
     inkscape:groupmode="layer"
     inkscape:label="daleta_017_08092026_121338"
     transform="matrix(1.3333333,0,0,-1.3333333,0,396)"><g
       id="g12"><g
         id="g14"
         transform="scale(192,297)"><g
           id="g18"
           transform="translate(-1.3258929,-0.01428571)"><path
             sodipodi:nodetypes="ccccsccsccsccccsccccsccsccccccsccccccccscccscccccccsccccccsccscscccccs"
             style="fill:#000000;fill-opacity:1;stroke-width:0.00251006"
             d="m 1.7616829,0.16827015 c -0.1842022,0 -0.1787254,-0.005022 -0.1804192,-8.4292e-4 -0.014609,0.006234 -0.014788,0.0145197 -0.013914,0.0227604 -1.695e-4,0.004923 0.00325,0.008301 0.00724,0.0116669 0.00116,8.4612e-4 0.00238,0.001654 0.00362,0.002391 0.00215,0.001275 0.00485,0.00234 0.00716,0.003029 0.00448,0.001589 0.018172,0.001731 0.06346,0.002112 0.028938,-3.0584e-4 0.057937,-1.303e-4 0.082812,2.3362e-4 0.02593,3.7937e-4 0.047379,9.6346e-4 0.059606,0.00142 0.012019,0.00124 0.012231,0.001414 0.014133,0.0116266 -0.00241,0.0248489 -0.00462,0.0518548 -0.00671,0.0794109 -0.00181,0.0237912 -0.00354,0.0479926 -0.00526,0.0715701 6.758e-4,0.0464911 -0.014612,0.09498 -0.00568,0.13580882 0.00176,0.007135 -0.00311,0.008784 -0.026128,0.008833 -0.024657,7.3135e-4 -0.03309,2.8e-5 -0.03309,2.8e-5 h -0.154288 c -0.068022,0 -0.10609,1.798e-5 -0.1277364,3.9882e-4 -0.012941,3.0558e-4 -0.027313,2.6312e-4 -0.037973,0.003415 -0.00751,0.002142 -0.012263,0.005396 -0.015343,0.009106 -0.010663,0.0227827 -0.013561,0.0495696 -0.014459,0.0708841 -1.891e-4,0.005083 -1.841e-4,0.010127 3.37e-5,0.0151001 6.349e-4,0.0144988 0.00308,0.0283942 0.00779,0.0408915 0.00403,0.0101395 0.010284,0.0212819 0.020435,0.0365363 0.030663,0.0406846 0.074663,0.0710706 0.1331951,0.088052 0.031352,0.009096 0.071035,0.0134493 0.1057674,0.0154841 0.029709,0.001637 0.054659,-0.001522 0.083413,-0.007631 0.028456,-0.009551 0.05253,-0.0226657 0.06492,-0.035344 0.00614,-0.004555 0.00909,-0.00504 0.030688,-0.00504 0.033212,-0.001672 0.066134,-0.004935 0.100705,-0.002189 0.00597,7.5033e-4 0.010479,0.002126 0.016082,0.004206 0.027885,0.0117809 0.049014,0.0183753 0.069714,0.0224776 0.021496,0.00426 0.042529,0.005833 0.070184,0.007735 0.019824,5.3728e-4 0.049464,9.4399e-4 0.069974,-0.003283 0.040726,-0.0108842 0.067437,-0.0334577 0.088241,-0.0546214 0.030193,-0.0306443 0.03311,-0.0399566 0.03311,-0.0751291 -0.00464,-0.0342429 -0.00319,-0.0349737 -0.015621,-0.0393279 -0.017467,-0.003911 -0.03098,0.0227022 -0.031927,0.0316122 -0.00162,0.0156041 -0.010743,0.0284606 -0.021983,0.0309633 -0.0055,0.0118326 -0.054415,0.009068 -0.05546,0.014315 0,0.001611 -0.0033,0.00276 -0.00792,0.00276 -0.00686,0 -0.00749,-5.2085e-4 -0.00469,-0.0039 0.0058,-0.006992 0.00394,-0.0102132 -0.00588,-0.0102132 -0.01651,-0.001251 -0.044766,-0.008197 -0.072955,-0.0144032 -0.018369,-0.004547 -0.040052,-0.007431 -0.059596,-0.006903 -0.028799,7.7839e-4 -0.052954,0.008965 -0.055024,0.0301517 -9.712e-4,0.008732 -0.00495,0.006278 -0.017368,0.006661 -0.016532,5.1056e-4 -0.042847,0.003433 -0.047454,0.00527 -0.00202,8.0625e-4 -0.00461,4.879e-4 -0.00576,-7.0746e-4 -0.00114,-0.001195 -0.00546,-0.003002 -0.00959,-0.004015 -0.00914,-0.002242 -0.0097,-0.005135 -0.00126,-0.006558 0.00379,-6.3996e-4 0.00625,-0.00275 0.00625,-0.005368 0.01691,-0.0213714 0.038703,-0.0443712 0.051002,-0.0662724 0.021859,-0.0389243 0.030524,-0.0770933 0.048209,-0.11583264 0.017622,-0.0615216 0.029457,-0.13198746 0.03268,-0.186943 0.00418,-0.0740437 0.00855,-0.0807192 0.015584,-0.0821598 0.00501,-0.009408 0.00213,-0.0433497 -0.00118,-0.0587136 -0.1312285,-0.002988 -0.3343449,0.002234 -0.2513361,-0.001513 z m 0.00373,0.38391317 c 0.00286,0.0256225 0.00203,0.11929432 -0.00429,0.16036785 -0.00281,0.0116087 -0.010441,0.0214952 -0.020792,0.0298132 -0.00683,0.005485 -0.014834,0.0102889 -0.023417,0.0144544 -0.00973,0.004665 -0.020681,0.008243 -0.034558,0.0110276 -0.013747,0.002383 -0.027703,0.002745 -0.041456,0.00181 -0.023714,-0.001612 -0.046824,-0.00708 -0.067212,-0.0126909 -0.01562,-0.004398 -0.025787,-0.008763 -0.032638,-0.0142321 -0.00771,-0.006152 -0.011219,-0.0136995 -0.013578,-0.0242589 -0.010894,-0.0519692 -0.015193,-0.13165857 0.014893,-0.16749601 0.00451,-0.002912 0.2091185,-0.003457 0.2161746,-5.7424e-4 z"
             id="path26"
             inkscape:connector-curvature="0" /></g></g></g></g></svg>
